<?xml version="1.0" encoding="utf-8"?>
<!-- Generator: Adobe Illustrator 26.0.0, SVG Export Plug-In . SVG Version: 6.00 Build 0)  -->
<svg version="1.1" id="Layer_1" xmlns="http://www.w3.org/2000/svg" xmlns:xlink="http://www.w3.org/1999/xlink" x="0px" y="0px"
	 viewBox="0 0 2508.4 440.9" style="enable-background:new 0 0 2508.4 440.9;" xml:space="preserve">
<style type="text/css">
	.st0{fill:#FFFFFF;}
	.st1{fill:#22F7DC;}
	.st2{fill:url(#SVGID_1_);}
	.st3{fill:url(#SVGID_00000114788294048228897470000005854180248727255170_);}
	.st4{fill:url(#SVGID_00000133490583472850835790000016631417207620133546_);}
	.st5{fill:url(#SVGID_00000084513131505536624120000006841619356392941747_);}
	.st6{fill:url(#SVGID_00000092431867412894769820000004720478507258045852_);}
	.st7{fill:url(#SVGID_00000169541039724244784000000002264837173668011702_);}
	.st8{fill:url(#SVGID_00000063623281742391861120000010535536089958688387_);}
	.st9{fill:url(#SVGID_00000085933551490101746780000008697275332733799575_);}
</style>
<g>
	<g>
		<polygon class="st1" points="1564.9,0 1323.5,26 1394.2,66.8 1369.9,144.8 		"/>
		<path class="st1" d="M1242.6,89.5c3.6-0.1,4.9-4.9,1.8-6.8c-19.4-11.9-44.2-20.1-44.2-20.1c-6.9-1.6-13.9,2.6-15.5,9.6
			c-1.6,6.9,2.6,13.9,9.6,15.5C1194.3,87.7,1220.2,90.4,1242.6,89.5z"/>
		<path class="st1" d="M1223.5,15.5c9.3,1.4,10.4-3.6,4.4-10c-2.9-3.1-6-6-10-4.4c-4,1.6-6,6-4.4,10
			C1215,15.1,1219.3,14.8,1223.5,15.5z"/>
		<path class="st1" d="M1254,142.5c-19.4,9.8-39.3,23.5-39.3,23.5c-5.3,4.7-5.8,12.9-1,18.2c4.8,5.3,12.9,5.8,18.2,1
			c0,0,16.4-17.5,27.8-36.4C1262.1,145,1258,140.5,1254,142.5z"/>
		<path class="st1" d="M1323.6,136.8c-13.6,9.7-27.1,22.2-27.1,22.2c-3.5,4.3-3,10.6,1.3,14.1c4.3,3.5,10.6,3,14.1-1.3
			c0,0,10.5-15.1,17.1-30.7C1330.4,137.8,1326.5,134.7,1323.6,136.8z"/>
	</g>
	<g>
		<linearGradient id="SVGID_1_" gradientUnits="userSpaceOnUse" x1="34.942" y1="310.85" x2="2414.5403" y2="550.8094">
			<stop  offset="0" style="stop-color:#FFFFFF"/>
			<stop  offset="0.5217" style="stop-color:#22F7DC"/>
			<stop  offset="1" style="stop-color:#FFFFFF"/>
		</linearGradient>
		<path class="st2" d="M332.9,278.8l13.7-70.1H48.2L21.5,347h238.7l-6.5,37.5H80.2l3.6-19.7H14.3L0,440.9l307.2,0l23.9-144.3
			c-4.9,0-232.5,0-232.5,0l6.5-37.5h168l-3.5,19.7H332.9z"/>
		
			<linearGradient id="SVGID_00000037672145704761547490000009685676910696493987_" gradientUnits="userSpaceOnUse" x1="38.4142" y1="276.4174" x2="2418.0125" y2="516.3769">
			<stop  offset="0" style="stop-color:#FFFFFF"/>
			<stop  offset="0.5217" style="stop-color:#22F7DC"/>
			<stop  offset="1" style="stop-color:#FFFFFF"/>
		</linearGradient>
		<path style="fill:url(#SVGID_00000037672145704761547490000009685676910696493987_);" d="M671.2,320.9
			c8.8-51.2,18.5-107.8,18.9-112.2H387.8l-41.2,232.2h71l8.3-36.7h3L583.7,351H435.2l17.7-86h163.2l-16.6,80.6L671.2,320.9z"/>
		
			<linearGradient id="SVGID_00000141437117391217218150000012229376950867365028_" gradientUnits="userSpaceOnUse" x1="40.9827" y1="250.9462" x2="2420.5808" y2="490.9057">
			<stop  offset="0" style="stop-color:#FFFFFF"/>
			<stop  offset="0.5217" style="stop-color:#22F7DC"/>
			<stop  offset="1" style="stop-color:#FFFFFF"/>
		</linearGradient>
		<polygon style="fill:url(#SVGID_00000141437117391217218150000012229376950867365028_);" points="881.4,351 782.5,351 
			847.8,260.1 847.9,260.2 919.2,237.9 908.6,208.7 805.4,208.7 638.5,440.9 717.8,440.9 745.3,402.8 900.3,402.8 914.2,440.9 
			993.5,440.9 952.1,327.7 		"/>
		
			<linearGradient id="SVGID_00000091717340430235780270000000015135867002220199_" gradientUnits="userSpaceOnUse" x1="40.4077" y1="256.6479" x2="2420.0059" y2="496.6073">
			<stop  offset="0" style="stop-color:#FFFFFF"/>
			<stop  offset="0.5217" style="stop-color:#22F7DC"/>
			<stop  offset="1" style="stop-color:#FFFFFF"/>
		</linearGradient>
		<polygon style="fill:url(#SVGID_00000091717340430235780270000000015135867002220199_);" points="1260.9,389.2 1086.6,389.2 
			1102.1,278.2 1025.8,303.4 1005.9,439.5 1320.3,440.8 1337.1,363.6 1265.5,363.6 		"/>
		
			<linearGradient id="SVGID_00000010997952972249589010000011538175009210284684_" gradientUnits="userSpaceOnUse" x1="54.2179" y1="119.6975" x2="2433.8162" y2="359.657">
			<stop  offset="0" style="stop-color:#FFFFFF"/>
			<stop  offset="0.5217" style="stop-color:#22F7DC"/>
			<stop  offset="1" style="stop-color:#FFFFFF"/>
		</linearGradient>
		<path style="fill:url(#SVGID_00000010997952972249589010000011538175009210284684_);" d="M1312.8,208.7l-156.9,51.8h127.9
			l-4.7,25.9h72c1.1-8.5,13.2-70.8,13.5-77.6C1364.5,208.7,1350.5,208.7,1312.8,208.7z"/>
		
			<linearGradient id="SVGID_00000075872877940530112470000008905527335012564142_" gradientUnits="userSpaceOnUse" x1="48.566" y1="175.7447" x2="2428.1643" y2="415.7041">
			<stop  offset="0" style="stop-color:#FFFFFF"/>
			<stop  offset="0.5217" style="stop-color:#22F7DC"/>
			<stop  offset="1" style="stop-color:#FFFFFF"/>
		</linearGradient>
		<polygon style="fill:url(#SVGID_00000075872877940530112470000008905527335012564142_);" points="1356,440.9 1656.6,440.6 
			1666.9,382.9 1437.3,382.9 1443,350.7 1666.2,350.7 1675.5,299 1451.9,299 1457.6,266.8 1687.1,266.8 1697.7,208.7 1396.9,208.7 
					"/>
		
			<linearGradient id="SVGID_00000047745204655601098300000015656772549766579867_" gradientUnits="userSpaceOnUse" x1="53.2421" y1="129.3738" x2="2432.8403" y2="369.3333">
			<stop  offset="0" style="stop-color:#FFFFFF"/>
			<stop  offset="0.5217" style="stop-color:#22F7DC"/>
			<stop  offset="1" style="stop-color:#FFFFFF"/>
		</linearGradient>
		<polygon style="fill:url(#SVGID_00000047745204655601098300000015656772549766579867_);" points="2033.6,208.7 1923.2,370.4 
			1869.9,208.7 1790.7,208.7 1867.2,440.7 1954.4,440.7 2113.1,208.7 		"/>
		
			<linearGradient id="SVGID_00000091702230526768482250000016804934032442054046_" gradientUnits="userSpaceOnUse" x1="56.3625" y1="98.4295" x2="2435.9607" y2="338.389">
			<stop  offset="0" style="stop-color:#FFFFFF"/>
			<stop  offset="0.5217" style="stop-color:#22F7DC"/>
			<stop  offset="1" style="stop-color:#FFFFFF"/>
		</linearGradient>
		<polygon style="fill:url(#SVGID_00000091702230526768482250000016804934032442054046_);" points="2491.8,208.7 2417.3,208.7 
			2292.7,366.8 2224.1,208.7 2149.2,208.7 2133,208.7 2091.9,440.7 2162.8,440.7 2188,297.9 2250.3,440.7 2309.2,440.7 
			2421.9,297.9 2396.7,440.7 2467.3,440.7 2508.4,208.7 		"/>
	</g>
</g>
</svg>
